<svg width="56" height="56" viewBox="0 0 56 56" fill="none" xmlns="http://www.w3.org/2000/svg">
<path d="M50.75 24.5H49V17.5H45.5V24.5H42V17.5H38.5V24.5H36.75C36.2859 24.5 35.8408 24.6844 35.5126 25.0126C35.1844 25.3408 35 25.7859 35 26.25V33.25C35.0026 35.2661 35.7003 37.2197 36.9754 38.7814C38.2505 40.3431 40.0251 41.4174 42 41.8232V47.25C42 47.7141 41.8156 48.1592 41.4874 48.4874C41.1592 48.8156 40.7141 49 40.25 49H8.75C8.28587 49 7.84075 48.8156 7.51256 48.4874C7.18437 48.1592 7 47.7141 7 47.25C7 46.7859 7.18437 46.3408 7.51256 46.0126C7.84075 45.6844 8.28587 45.5 8.75 45.5H17.5C18.8924 45.5 20.2277 44.9469 21.2123 43.9623C22.1969 42.9777 22.75 41.6424 22.75 40.25C22.75 38.8576 22.1969 37.5223 21.2123 36.5377C20.2277 35.5531 18.8924 35 17.5 35H8.75C8.28587 35 7.84075 34.8156 7.51256 34.4874C7.18437 34.1593 7 33.7141 7 33.25C7 32.7859 7.18437 32.3407 7.51256 32.0126C7.84075 31.6844 8.28587 31.5 8.75 31.5H17.5C18.892 31.4986 20.2265 30.945 21.2108 29.9608C22.195 28.9765 22.7486 27.642 22.75 26.25V19.25H24.5C26.3558 19.2477 28.1349 18.5094 29.4472 17.1972C30.7594 15.8849 31.4977 14.1058 31.5 12.25V7H26.25C24.4582 7.00265 22.7365 7.69587 21.4428 8.9355C20.5362 7.29054 19.2052 5.91868 17.5885 4.96271C15.9717 4.00675 14.1282 3.50166 12.25 3.5H7V8.75C7.00324 11.5338 8.11053 14.2026 10.079 16.171C12.0474 18.1395 14.7162 19.2468 17.5 19.25H19.25V26.25C19.25 26.7141 19.0656 27.1592 18.7374 27.4874C18.4092 27.8156 17.9641 28 17.5 28H8.75C7.35761 28 6.02226 28.5531 5.03769 29.5377C4.05312 30.5223 3.5 31.8576 3.5 33.25C3.5 34.6424 4.05312 35.9777 5.03769 36.9623C6.02226 37.9469 7.35761 38.5 8.75 38.5H17.5C17.9641 38.5 18.4092 38.6844 18.7374 39.0126C19.0656 39.3408 19.25 39.7859 19.25 40.25C19.25 40.7141 19.0656 41.1592 18.7374 41.4874C18.4092 41.8156 17.9641 42 17.5 42H8.75C7.35761 42 6.02226 42.5531 5.03769 43.5377C4.05312 44.5223 3.5 45.8576 3.5 47.25C3.5 48.6424 4.05312 49.9777 5.03769 50.9623C6.02226 51.9469 7.35761 52.5 8.75 52.5H40.25C41.642 52.4986 42.9765 51.945 43.9608 50.9608C44.945 49.9765 45.4986 48.642 45.5 47.25V41.8232C47.4749 41.4174 49.2495 40.3431 50.5246 38.7814C51.7997 37.2197 52.4974 35.2661 52.5 33.25V26.25C52.5 25.7859 52.3156 25.3408 51.9874 25.0126C51.6592 24.6844 51.2141 24.5 50.75 24.5ZM22.75 14C22.7509 13.072 23.12 12.1823 23.7761 11.5261C24.4323 10.87 25.322 10.5009 26.25 10.5H28V12.25C27.9991 13.178 27.63 14.0677 26.9739 14.7239C26.3177 15.38 25.428 15.7491 24.5 15.75H22.75V14ZM17.5 15.75C15.6442 15.7477 13.8651 15.0094 12.5528 13.6972C11.2406 12.3849 10.5023 10.6058 10.5 8.75V7H12.25C14.1058 7.00232 15.8849 7.74056 17.1972 9.05281C18.5094 10.3651 19.2477 12.1442 19.25 14V15.75H17.5ZM49 33.25C49 34.6424 48.4469 35.9777 47.4623 36.9623C46.4777 37.9469 45.1424 38.5 43.75 38.5C42.3576 38.5 41.0223 37.9469 40.0377 36.9623C39.0531 35.9777 38.5 34.6424 38.5 33.25V28H49V33.25Z" fill="#141414"/>
</svg>
