<svg width="56" height="56" viewBox="0 0 56 56" fill="none" xmlns="http://www.w3.org/2000/svg">
<g clip-path="url(#clip0_15_287)">
<path d="M52.5 33.25H45.5V26.25H42V42H14V14L29.75 13.9984V10.5H22.75V3.5H19.25V10.5H14C13.072 10.5009 12.1823 10.87 11.5261 11.5261C10.87 12.1823 10.5009 13.072 10.5 14V19.25H3.5V22.75H10.5V33.25H3.5V36.75H10.5V42C10.5011 42.9279 10.8702 43.8176 11.5263 44.4737C12.1824 45.1298 13.0721 45.4989 14 45.5H19.25V52.5H22.75V45.5H33.25V52.5H36.75V45.5H42C42.9279 45.4987 43.8174 45.1296 44.4735 44.4735C45.1296 43.8174 45.4987 42.9279 45.5 42V36.75H52.5V33.25Z" fill="#141414"/>
<path d="M36.75 36.75H19.25V19.25H36.75V36.75ZM22.75 33.25H33.25V22.75H22.75V33.25Z" fill="#141414"/>
<path d="M54.25 22.75H50.75C50.7446 18.1104 48.8991 13.6623 45.6184 10.3816C42.3377 7.1009 37.8896 5.25542 33.25 5.25V1.75C38.8177 1.75607 44.1556 3.97051 48.0925 7.90746C52.0295 11.8444 54.2439 17.1823 54.25 22.75Z" fill="#141414"/>
<path d="M45.5 22.75H42C41.9973 20.4302 41.0745 18.2062 39.4342 16.5658C37.7938 14.9255 35.5698 14.0027 33.25 14V10.5C36.4977 10.5039 39.6112 11.7958 41.9077 14.0923C44.2042 16.3888 45.4961 19.5023 45.5 22.75Z" fill="#141414"/>
</g>
<defs>
<clipPath id="clip0_15_287">
<rect width="56" height="56" fill="white"/>
</clipPath>
</defs>
</svg>
