<svg width="56" height="56" viewBox="0 0 56 56" fill="none" xmlns="http://www.w3.org/2000/svg">
<path d="M41.0662 52.6397H26.5995C25.6429 52.6397 24.8495 51.8464 24.8495 50.8897C24.8495 49.9331 25.6429 49.1397 26.5995 49.1397H41.0662C43.5629 49.1397 46.0129 47.0628 46.4329 44.5895L49.5362 26.0164C49.8162 24.3364 48.8831 21.9328 47.5764 20.8828L31.4062 7.95634C29.5395 6.463 26.4362 6.46298 24.5929 7.93298L8.42292 20.8828C7.09292 21.9561 6.18292 24.3364 6.46292 26.0164L7.11626 29.9595C7.27959 30.9162 6.62628 31.8262 5.66961 31.9662C4.71295 32.1528 3.8263 31.4762 3.66297 30.5195L3.00964 26.5997C2.51964 23.7064 3.91966 19.9963 6.22966 18.153L22.3996 5.20289C25.5262 2.68289 30.4495 2.70624 33.5995 5.22624L49.7695 18.153C52.0562 19.9963 53.4562 23.7064 52.9895 26.5997L49.8862 45.1728C49.1862 49.3028 45.2429 52.6397 41.0662 52.6397Z" fill="#141414"/>
<path d="M11.6673 53.0833C10.7106 53.0833 9.9406 52.3133 9.91726 51.38C9.84726 48.23 7.77062 46.1533 4.62062 46.0833C3.66395 46.06 2.89393 45.2666 2.91726 44.2866C2.9406 43.33 3.7106 42.5833 4.66727 42.5833H4.71391C9.73058 42.7 13.3239 46.27 13.4173 51.2866C13.4406 52.2433 12.6706 53.06 11.7139 53.0833C11.6906 53.0833 11.6906 53.0833 11.6673 53.0833Z" fill="#141414"/>
<path d="M18.6673 53.0833C17.7106 53.0833 16.9173 52.3133 16.9173 51.3566C16.8939 49.8166 16.6372 48.3466 16.1706 46.97C14.9806 43.5633 12.4372 41.0431 9.03056 39.8297C7.65389 39.3397 6.18389 39.0833 4.64389 39.0833C3.68723 39.0833 2.89392 38.29 2.91725 37.31C2.91725 36.3533 3.71058 35.5833 4.66725 35.5833H4.69058C6.62725 35.6066 8.47056 35.9333 10.1972 36.54C14.6072 38.1033 17.8972 41.3933 19.4606 45.8033C20.0672 47.53 20.3939 49.3966 20.4173 51.31C20.4173 52.29 19.6473 53.0833 18.6673 53.0833Z" fill="#141414"/>
<path d="M4.66671 53.6667C3.36004 53.6667 2.33337 52.6167 2.33337 51.3333C2.33337 50.05 3.38337 49 4.66671 49C5.95004 49 7.00004 50.05 7.00004 51.3333C7.00004 52.6167 5.97337 53.6667 4.66671 53.6667Z" fill="#141414"/>
</svg>
