<svg width="64" height="62" viewBox="0 0 64 62" fill="none" xmlns="http://www.w3.org/2000/svg">
<path fill-rule="evenodd" clip-rule="evenodd" d="M29.0419 0C27.0595 0 25.4524 1.60705 25.4524 3.58945V34.589H7.17891V18.5998C7.17891 16.6174 5.57186 15.0104 3.58946 15.0104C1.60705 15.0104 0 16.6174 0 18.5998V58.4101C0 60.3926 1.60705 61.9996 3.58946 61.9996C5.57186 61.9996 7.17891 60.3926 7.17891 58.4102V41.7679H25.4524V58.4103C25.4524 60.3927 27.0595 61.9997 29.0419 61.9997C31.0243 61.9997 32.6314 60.3927 32.6314 58.4103V38.2356C32.6317 38.2166 32.6318 38.1975 32.6318 38.1784C32.6318 38.1593 32.6317 38.1403 32.6314 38.1213V3.58946C32.6314 1.60705 31.0243 0 29.0419 0ZM38.8312 0C36.8488 0 35.2417 1.60705 35.2417 3.58945V58.3618C35.2415 58.3779 35.2414 58.3941 35.2414 58.4102C35.2414 60.1435 36.4699 61.5898 38.1037 61.926C38.2218 61.9503 38.3421 61.9688 38.4641 61.9812C38.5848 61.9934 38.7073 61.9997 38.8312 61.9997L38.8479 61.9997H59.6581C59.6771 62 59.6962 62.0001 59.7153 62.0001C61.6977 62.0001 63.3047 60.3931 63.3047 58.4107V46.0107C63.3047 44.0283 61.6977 42.4213 59.7153 42.4213C57.7329 42.4213 56.1258 44.0283 56.1258 46.0107V54.8208H42.4206V10.5323L55.4737 19.7117V28.2264C55.4737 30.2989 57.1538 31.979 59.2263 31.979C61.2989 31.979 62.979 30.2989 62.979 28.2264V18.1107C62.979 16.639 62.1318 15.3652 60.8986 14.7503L41.2269 0.916437C40.5915 0.346602 39.7518 0 38.8312 0Z" fill="#71B941"/>
</svg>
