<svg width="20" height="34" viewBox="0 0 20 34" fill="none" xmlns="http://www.w3.org/2000/svg">
<path fill-rule="evenodd" clip-rule="evenodd" d="M7.48033 3.31333C9.12106 1.67233 11.3465 0.750275 13.667 0.75H18.167C18.4985 0.75 18.8165 0.881696 19.0509 1.11612C19.2853 1.35054 19.417 1.66848 19.417 2V8C19.417 8.33152 19.2853 8.64946 19.0509 8.88388C18.8165 9.1183 18.4985 9.25 18.167 9.25H13.667C13.6342 9.25 13.6017 9.25647 13.5713 9.26903C13.541 9.28159 13.5134 9.30001 13.4902 9.32322C13.467 9.34644 13.4486 9.374 13.436 9.40433C13.4235 9.43466 13.417 9.46717 13.417 9.5V12.75H18.167C18.357 12.7499 18.5446 12.7931 18.7154 12.8764C18.8862 12.9597 19.0358 13.0808 19.1528 13.2305C19.2698 13.3803 19.3511 13.5547 19.3905 13.7406C19.4299 13.9265 19.4264 14.119 19.3803 14.3033L17.8803 20.3033C17.8127 20.5739 17.6565 20.814 17.4366 20.9855C17.2168 21.1571 16.9459 21.2502 16.667 21.25H13.417V32C13.417 32.3315 13.2853 32.6495 13.0509 32.8839C12.8165 33.1183 12.4985 33.25 12.167 33.25H6.16699C5.83547 33.25 5.51753 33.1183 5.28311 32.8839C5.04869 32.6495 4.91699 32.3315 4.91699 32V21.25H1.66699C1.33547 21.25 1.01753 21.1183 0.783109 20.8839C0.548688 20.6495 0.416992 20.3315 0.416992 20V14C0.416992 13.8358 0.449324 13.6733 0.512143 13.5216C0.574961 13.37 0.667035 13.2322 0.783109 13.1161C0.899182 13 1.03698 12.908 1.18864 12.8452C1.34029 12.7823 1.50284 12.75 1.66699 12.75H4.91699V9.5C4.91727 7.17946 5.83932 4.95407 7.48033 3.31333ZM13.667 3.25C12.0094 3.25 10.4197 3.90848 9.24757 5.08058C8.07547 6.25269 7.41699 7.8424 7.41699 9.5V14C7.41699 14.3315 7.2853 14.6495 7.05088 14.8839C6.81646 15.1183 6.49851 15.25 6.16699 15.25H2.91699V18.75H6.16699C6.49851 18.75 6.81646 18.8817 7.05088 19.1161C7.2853 19.3505 7.41699 19.6685 7.41699 20V30.75H10.917V20C10.917 19.6685 11.0487 19.3505 11.2831 19.1161C11.5175 18.8817 11.8355 18.75 12.167 18.75H15.6903L16.5653 15.25H12.167C11.8355 15.25 11.5175 15.1183 11.2831 14.8839C11.0487 14.6495 10.917 14.3315 10.917 14V9.5C10.917 8.77065 11.2067 8.07118 11.7224 7.55546C12.2382 7.03973 12.9376 6.75 13.667 6.75H16.917V3.25H13.667Z" fill="#0E4B61"/>
</svg>
