<svg width="32" height="32" viewBox="0 0 32 32" fill="none" xmlns="http://www.w3.org/2000/svg">
<path d="M31 9.195V15.9183C27.9768 15.6182 25.0942 14.4934 22.6667 12.6667V20.1667C22.6662 22.2019 22.0925 24.1958 21.0112 25.92C19.9298 27.6442 18.3847 29.0289 16.5528 29.9156C14.7208 30.8022 12.6762 31.1548 10.6531 30.9331C8.62998 30.7114 6.71026 29.9242 5.11384 28.6619C3.51743 27.3995 2.3089 25.713 1.62671 23.7955C0.944524 21.878 0.816271 19.8072 1.25665 17.8202C1.69702 15.8332 2.68822 14.0104 4.11667 12.5607C5.54512 11.111 7.35305 10.093 9.33333 9.62333V16.8333C8.76515 17.2595 8.31532 17.8238 8.02657 18.4727C7.73781 19.1216 7.61972 19.8335 7.6835 20.5409C7.74729 21.2482 7.99083 21.9275 8.391 22.5143C8.79117 23.1011 9.33469 23.5758 9.96994 23.8934C10.6052 24.2111 11.3111 24.361 12.0206 24.3291C12.7301 24.2972 13.4197 24.0844 14.0239 23.711C14.628 23.3377 15.1267 22.816 15.4726 22.1957C15.8185 21.5753 16 20.8769 16 20.1667V1H22.805C23.152 3.04734 24.1273 4.93604 25.5956 6.40438C27.064 7.87271 28.9527 8.84797 31 9.195Z" stroke="#0E4B61" stroke-width="2" stroke-linecap="round" stroke-linejoin="round"/>
</svg>
