<svg width="41" height="40" viewBox="0 0 41 40" fill="none" xmlns="http://www.w3.org/2000/svg">
<path d="M20.5 3.60375C25.8402 3.60375 26.4727 3.62406 28.5816 3.72016C30.5316 3.80922 31.5906 4.135 32.2955 4.40891C33.2289 4.77172 33.8952 5.20516 34.595 5.905C35.295 6.60484 35.7283 7.27109 36.0911 8.20453C36.365 8.90938 36.6908 9.96844 36.7798 11.9183C36.8759 14.0273 36.8963 14.6598 36.8963 20C36.8963 25.3403 36.8759 25.9728 36.7798 28.0817C36.6908 30.0317 36.365 31.0906 36.0911 31.7955C35.7283 32.7289 35.2948 33.3953 34.595 34.0952C33.8952 34.795 33.2289 35.2284 32.2955 35.5911C31.5906 35.865 30.5316 36.1909 28.5816 36.2798C26.473 36.3761 25.8405 36.3964 20.5 36.3964C15.1594 36.3964 14.5269 36.3761 12.4183 36.2798C10.4683 36.1908 9.40938 35.865 8.70453 35.5911C7.77109 35.2284 7.10469 34.795 6.40484 34.0952C5.705 33.3952 5.27156 32.7289 4.90891 31.7955C4.635 31.0908 4.30906 30.0317 4.22016 28.0817C4.12391 25.9728 4.10359 25.3403 4.10359 20C4.10359 14.6598 4.12391 14.0273 4.22016 11.9184C4.30922 9.96844 4.635 8.90938 4.90891 8.20453C5.27156 7.27109 5.705 6.60484 6.40484 5.905C7.10484 5.205 7.77109 4.77172 8.70453 4.40891C9.40922 4.135 10.4683 3.80922 12.4183 3.72016C14.5272 3.62406 15.1597 3.60375 20.5 3.60375ZM20.5 0C15.0683 0 14.3872 0.0229687 12.2541 0.120312C10.1252 0.2175 8.67125 0.555625 7.39922 1.05C6.08391 1.56109 4.96859 2.245 3.85672 3.35687C2.74484 4.46875 2.06109 5.58406 1.55 6.89922C1.05547 8.17141 0.7175 9.62531 0.620312 11.7541C0.522969 13.8872 0.5 14.5683 0.5 20C0.5 25.4317 0.522969 26.1128 0.620312 28.2459C0.7175 30.3748 1.05547 31.8288 1.55 33.1008C2.06094 34.4159 2.74484 35.5314 3.85672 36.6433C4.96859 37.7552 6.08391 38.4389 7.39922 38.95C8.67141 39.4445 10.1252 39.7825 12.2539 39.8797C14.3872 39.977 15.0683 40 20.5 40C25.9317 40 26.6128 39.977 28.7459 39.8797C30.8747 39.7825 32.3286 39.4445 33.6006 38.95C34.9159 38.4391 36.0312 37.7552 37.1431 36.6433C38.255 35.5314 38.9389 34.4161 39.45 33.1008C39.9444 31.8286 40.2825 30.3748 40.3797 28.2461C40.477 26.1128 40.5 25.4317 40.5 20C40.5 14.5683 40.477 13.8872 40.3797 11.7541C40.2825 9.62531 39.9444 8.17141 39.45 6.89937C38.9389 5.58406 38.255 4.46875 37.1431 3.35687C36.0312 2.245 34.9159 1.56094 33.6008 1.05C32.3286 0.555625 30.8747 0.2175 28.7459 0.120312C26.6128 0.0229687 25.9317 0 20.5 0ZM20.5 9.72969C14.8278 9.72969 10.2297 14.3281 10.2297 20C10.2297 25.6722 14.8278 30.2703 20.5 30.2703C26.172 30.2703 30.7703 25.6722 30.7703 20C30.7703 14.328 26.172 9.72969 20.5 9.72969ZM20.5 26.6667C16.8181 26.6667 13.8333 23.6819 13.8333 20C13.8333 16.3181 16.8181 13.3333 20.5 13.3333C24.1819 13.3333 27.1667 16.3181 27.1667 20C27.1667 23.6819 24.1819 26.6667 20.5 26.6667ZM33.5759 9.32391C33.5759 10.6495 32.5016 11.7239 31.1759 11.7239C29.8505 11.7239 28.7759 10.6495 28.7759 9.32391C28.7759 7.99844 29.8505 6.92391 31.1759 6.92391C32.5016 6.92391 33.5759 7.99844 33.5759 9.32391Z" fill="#0E4B61"/>
</svg>
