<svg width="34" height="34" viewBox="0 0 34 34" fill="none" xmlns="http://www.w3.org/2000/svg">
<path fill-rule="evenodd" clip-rule="evenodd" d="M11.1198 23.3817C17.5282 29.79 23.4665 30.4917 25.2098 30.5567C27.3165 30.6333 29.4665 28.9133 30.3965 27.1517C28.9132 25.4117 26.9815 24.0617 24.8665 22.5983C23.6182 23.845 22.0798 26.1617 20.0315 25.3317C18.8665 24.8633 15.9898 23.5383 13.4765 21.0233C10.9615 18.51 9.63817 15.6333 9.1665 14.47C8.3365 12.4183 10.6598 10.8767 11.9082 9.62833C10.4448 7.47833 9.11817 5.49666 7.3815 4.08833C5.59484 5.02166 3.86484 7.15499 3.94317 9.28999C4.00817 11.0333 4.70984 16.9717 11.1198 23.3817ZM25.0865 33.8883C22.6865 33.8 15.8848 32.86 8.7615 25.7383C1.63984 18.615 0.701504 11.815 0.611504 9.41333C0.47817 5.75333 3.2815 2.19833 6.51984 0.809993C6.9098 0.641605 7.33684 0.577494 7.75905 0.623952C8.18127 0.670411 8.58415 0.825841 8.92817 1.07499C11.6082 3.02999 13.4565 5.99166 15.0448 8.31166C15.3753 8.79408 15.5266 9.37683 15.4727 9.95907C15.4189 10.5413 15.1632 11.0864 14.7498 11.5L12.4898 13.7617C13.0148 14.92 14.0832 16.9167 15.8332 18.6667C17.5832 20.4167 19.5798 21.485 20.7398 22.01L22.9982 19.75C23.4134 19.3358 23.9607 19.0804 24.5449 19.0283C25.129 18.9763 25.7129 19.1308 26.1948 19.465C28.5615 21.105 31.3415 22.9267 33.3682 25.5217C33.6376 25.8682 33.8089 26.2807 33.8643 26.7161C33.9197 27.1514 33.8572 27.5937 33.6832 27.9967C32.2882 31.2517 28.7582 34.0233 25.0865 33.8883Z" fill="#0E4B61"/>
</svg>
