<svg width="37" height="40" viewBox="0 0 37 40" fill="none" xmlns="http://www.w3.org/2000/svg">
<path d="M18.8098 40H18.7981C12.8298 39.96 8.24146 37.9917 5.15812 34.1517C2.41646 30.7333 0.999792 25.9767 0.953125 20.0167V19.9883C1.00312 14.0233 2.41813 9.27167 5.16146 5.85167C8.24146 2.00833 12.8331 0.04 18.7998 0H18.8231C23.3998 0.0333333 27.2281 1.20833 30.1998 3.49667C32.9948 5.64667 34.9631 8.71333 36.0481 12.6083L32.6481 13.5567C30.8081 6.95667 26.1515 3.58333 18.8081 3.53167C13.9581 3.56833 10.2915 5.09167 7.90812 8.06C5.67812 10.84 4.52646 14.8567 4.48146 20C4.52646 25.1433 5.67812 29.16 7.90979 31.94C10.2931 34.9117 13.9615 36.4367 18.8098 36.4683C23.1815 36.435 26.0731 35.4167 28.4765 33.06C31.2215 30.3717 31.1731 27.0717 30.2931 25.0633C29.7765 23.88 28.8381 22.8967 27.5698 22.1467C27.2498 24.4 26.5331 26.2233 25.4298 27.6C23.9531 29.4367 21.8631 30.44 19.2131 30.5833C17.2098 30.6917 15.2781 30.22 13.7815 29.2483C12.0098 28.1 10.9731 26.3483 10.8615 24.3083C10.7531 22.325 11.5415 20.5 13.0781 19.1717C14.5448 17.905 16.6098 17.16 19.0498 17.02C20.7312 16.917 22.4188 16.9963 24.0831 17.2567C23.8731 16.02 23.4581 15.0367 22.8331 14.3283C21.9781 13.3517 20.6531 12.8567 18.9015 12.845H18.8531C17.4465 12.845 15.5331 13.2317 14.3181 15.045L11.3898 13.0783C13.0231 10.655 15.6698 9.31833 18.8531 9.31833H18.9265C24.2498 9.35167 27.4215 12.61 27.7381 18.2983C27.9192 18.3761 28.0976 18.455 28.2731 18.535C30.7565 19.7017 32.5731 21.47 33.5298 23.6517C34.8581 26.685 34.9815 31.635 30.9498 35.5817C27.8665 38.5983 24.1265 39.9617 18.8215 39.9983L18.8098 40ZM20.4815 20.5167C20.0792 20.5167 19.6687 20.5283 19.2498 20.5517C16.1898 20.7233 14.2831 22.1283 14.3898 24.1233C14.5015 26.2167 16.8098 27.1883 19.0298 27.0683C21.0698 26.96 23.7265 26.1633 24.1731 20.885C22.9591 20.6318 21.7216 20.5083 20.4815 20.5167Z" fill="#0E4B61"/>
</svg>
